<svg width="80" height="17" viewBox="0 0 80 17" fill="none" xmlns="http://www.w3.org/2000/svg">
<path d="M0 4.71557C0 3.09858 0.67823 1.64017 1.76566 0.609375C1.69912 0.988844 1.64389 1.37115 1.59717 1.75628C2.15504 1.38955 2.82336 1.17575 3.53982 1.17575C5.49522 1.17575 7.07965 2.76017 7.07965 4.71557C7.07965 6.67097 5.49522 8.25539 3.53982 8.25539C1.58442 8.25539 0 6.67097 0 4.71557Z" fill="#546DAD"/>
<path d="M7.78761 4.71557C7.78761 3.09858 8.46584 1.64017 9.55328 0.609375C9.48673 0.988844 9.43151 1.37115 9.38478 1.75628C9.94266 1.38955 10.611 1.17575 11.3274 1.17575C13.2828 1.17575 14.8673 2.76017 14.8673 4.71557C14.8673 6.67097 13.2828 8.25539 11.3274 8.25539C9.37204 8.25539 7.78761 6.67097 7.78761 4.71557Z" fill="#546DAD"/>
<path d="M7.07965 12.5032C7.07965 14.1202 6.40142 15.5786 5.31398 16.6094C5.38053 16.2299 5.43575 15.8476 5.48248 15.4625C4.9246 15.8292 4.25628 16.043 3.53982 16.043C1.58442 16.043 0 14.4586 0 12.5032C0 10.5478 1.58442 8.96336 3.53982 8.96336C5.49522 8.96336 7.07965 10.5478 7.07965 12.5032Z" fill="#546DAD"/>
<path fill-rule="evenodd" clip-rule="evenodd" d="M14.8658 12.5041C14.8658 14.4591 13.281 16.0439 11.326 16.0439C9.37099 16.0439 7.78616 14.4591 7.78616 12.5041C7.78616 10.5491 9.37099 8.96424 11.326 8.96424C13.281 8.96424 14.8658 10.5491 14.8658 12.5041ZM13.4499 12.5041C13.4499 13.3635 13.144 14.148 12.6371 14.7611C12.657 14.5529 12.6725 14.3448 12.6867 14.1352C12.3185 14.4425 11.8442 14.628 11.326 14.628C10.1536 14.628 9.20209 13.6779 9.20209 12.5041C9.20209 11.3317 10.1536 10.3802 11.326 10.3802C12.4998 10.3802 13.4499 11.3317 13.4499 12.5041Z" fill="#546DAD"/>
<path d="M31.775 15.6414C30.8888 15.3425 30.0695 15.0333 29.3172 14.7139C28.5751 14.4047 27.8795 14.0698 27.2303 13.7091C26.5604 14.0801 25.8287 14.4305 25.0352 14.7602C24.2416 15.09 23.345 15.4198 22.3454 15.7496L21.0933 13.7864C20.8356 14.0749 20.5677 14.3532 20.2894 14.6211C20.0215 14.8891 19.7432 15.157 19.4547 15.425L18.8673 12.2405C19.7948 11.2718 20.5934 10.2928 21.2633 9.30342C21.9332 8.31408 22.5 7.23199 22.9637 6.05715H19.6711L19.6556 3.98573C19.7175 3.78992 19.7793 3.58381 19.8411 3.36739C19.903 3.14066 19.9597 2.91909 20.0112 2.70268C20.073 2.48626 20.1245 2.28015 20.1658 2.08434C20.207 1.87823 20.2431 1.69788 20.274 1.5433L22.6082 1.71334C22.5876 1.80609 22.5567 1.93491 22.5154 2.0998C22.4845 2.26469 22.4433 2.44504 22.3918 2.64084C22.3506 2.82634 22.3042 3.017 22.2527 3.2128C22.2114 3.39831 22.1702 3.55804 22.129 3.69202H23.7057C23.8088 3.31071 23.8964 2.91909 23.9685 2.51717C24.051 2.11526 24.1231 1.69788 24.185 1.26504L26.6583 1.43509C26.6068 1.8267 26.5449 2.21316 26.4728 2.59447C26.411 2.96547 26.3388 3.33132 26.2564 3.69202H29.178C29.0131 3.51682 28.8431 3.34678 28.6679 3.18189C28.503 3.00669 28.3484 2.84696 28.2041 2.70268L29.75 1.32688C29.884 1.44024 30.0385 1.57936 30.2137 1.74425C30.3889 1.89884 30.5641 2.05858 30.7393 2.22347C30.9248 2.37805 31.0949 2.53263 31.2495 2.68722C31.404 2.8418 31.538 2.97062 31.6514 3.07368L30.9712 3.69202H32.9344V6.05715H25.6071C25.5453 6.25296 25.4783 6.44877 25.4062 6.64457C25.3443 6.83007 25.2773 7.01558 25.2052 7.20108H31.8523V9.56622C31.4916 10.0609 31.1258 10.5143 30.7548 10.9266C30.3941 11.3388 30.0025 11.7252 29.5799 12.0859C30.6208 12.4569 31.8111 12.7558 33.1508 12.9825L31.775 15.6414ZM27.1375 10.8956C27.8177 10.4525 28.4412 9.92176 29.008 9.30342H25.2516C25.8287 9.92176 26.4573 10.4525 27.1375 10.8956ZM21.7425 13.0598C22.3299 12.9155 22.8813 12.7661 23.3966 12.6115C23.9119 12.4466 24.4014 12.2714 24.8651 12.0859C24.6178 11.8798 24.3756 11.6634 24.1386 11.4367C23.9015 11.21 23.6697 10.9729 23.4429 10.7256C23.175 11.1378 22.9019 11.5397 22.6237 11.9314C22.3454 12.3127 22.0517 12.6888 21.7425 13.0598Z" fill="#546DAD"/>
<path d="M48.381 2.06888V4.27944H45.3202V4.94415H42.8005V4.27944H40.1107V4.94415H37.6219V4.27944H34.5457V2.06888H37.6219V1.29596L40.1107 1.35779V2.06888H42.8005V1.29596L45.3202 1.35779V2.06888H48.381ZM45.784 8.60779H48.1028V10.8493H45.784V13.5854C45.784 13.9564 45.7376 14.2604 45.6449 14.4975C45.5624 14.7448 45.4233 14.9457 45.2275 15.1003C45.042 15.2549 44.7895 15.3683 44.47 15.4404C44.1505 15.5229 43.7589 15.5795 43.2952 15.6105L41.5638 15.7341L40.7755 13.3381L42.2904 13.2453C42.6202 13.2247 42.8623 13.1577 43.0169 13.0444C43.1715 12.931 43.2488 12.7249 43.2488 12.426V10.8493H43.0324C42.5377 11.3852 42.0224 11.8747 41.4865 12.3178C40.961 12.7506 40.3942 13.1526 39.7861 13.5236C39.1884 13.8946 38.5494 14.2347 37.8693 14.5438C37.1994 14.8633 36.478 15.1673 35.7051 15.4559L34.453 13.1835C35.0301 13.0289 35.5608 12.8692 36.0452 12.7043C36.5295 12.5291 36.9778 12.3487 37.3901 12.1632C37.8126 11.9674 38.2042 11.7613 38.5649 11.5449C38.9359 11.3285 39.2863 11.0966 39.6161 10.8493H35.4423V8.56142L35.7979 7.71121H38.4258L38.0393 8.60779H43.2488V7.44841H35.1641V5.17602H47.7936V7.44841H45.784V8.60779Z" fill="#546DAD"/>
<path d="M60.7977 10.1382C61.0245 10.7771 61.4212 11.3852 61.988 11.9623C62.5549 12.5291 63.235 13.0186 64.0286 13.4308L62.6528 15.5641C62.0859 15.1828 61.5449 14.7345 61.0296 14.2192C60.5246 13.7142 60.1176 13.1835 59.8084 12.627C59.5095 13.1526 59.1179 13.6524 58.6336 14.1264C58.1492 14.6108 57.5412 15.1055 56.8095 15.6105L55.48 13.9719C55.4594 13.9719 55.444 13.977 55.4337 13.9873V15.7032H53.455V14.2192C53.1149 14.2604 52.7697 14.3016 52.4193 14.3429C52.0689 14.3841 51.7288 14.4202 51.399 14.4511C51.0795 14.4923 50.7755 14.5284 50.487 14.5593C50.1984 14.6005 49.9459 14.6366 49.7295 14.6675L49.4976 12.1941C49.6316 12.1735 49.7707 12.1581 49.915 12.1478C50.0696 12.1375 50.2242 12.122 50.3788 12.1014V4.15577H49.9768V1.77517H55.8356V4.15577H55.4337V11.4676C55.5161 11.4573 55.5934 11.447 55.6655 11.4367C55.7377 11.4264 55.8098 11.4161 55.882 11.4058V13.1062C56.253 12.8898 56.5724 12.6734 56.8404 12.4569C57.1186 12.2405 57.3557 12.0138 57.5515 11.7768C57.7473 11.5397 57.907 11.2873 58.0307 11.0193C58.1544 10.7514 58.2523 10.4577 58.3244 10.1382H55.9593V7.75758H58.4944V6.45907H56.253V4.12485H57.3969C57.3351 3.95996 57.2578 3.77446 57.165 3.56835C57.0826 3.36224 57.0001 3.16128 56.9177 2.96547C56.8352 2.75936 56.7528 2.56355 56.6703 2.37805C56.5982 2.19255 56.5312 2.03281 56.4694 1.89884L58.4944 1.24958C58.546 1.34233 58.6181 1.48146 58.7109 1.66696C58.8036 1.85246 58.8964 2.05342 58.9891 2.26984C59.0922 2.48626 59.1901 2.70783 59.2828 2.93455C59.3756 3.15097 59.4529 3.34162 59.5147 3.50651L58.0925 4.12485H59.7002C59.8136 3.90843 59.9269 3.67656 60.0403 3.42922C60.1639 3.17158 60.2825 2.91909 60.3958 2.67176C60.5195 2.41412 60.6329 2.16678 60.7359 1.92976C60.839 1.68242 60.9266 1.4557 60.9987 1.24958L63.132 2.06888C63.0289 2.30591 62.8795 2.61508 62.6837 2.99639C62.4879 3.36739 62.2818 3.74354 62.0653 4.12485H63.302V6.45907H60.7668V7.75758H63.5339V10.1382H60.7977ZM52.3111 4.15577V5.31515H53.455V4.15577H52.3111ZM52.3111 8.54596H53.455V7.38658H52.3111V8.54596ZM53.455 11.7459V10.6174H52.3111V11.885L53.455 11.7459Z" fill="#546DAD"/>
<path d="M70.8803 9.27251H65.6553V1.7288H70.8803V8.43775C71.0658 8.13889 71.2152 7.85033 71.3286 7.57208C71.4522 7.29383 71.5501 7.01042 71.6223 6.72187C71.6944 6.423 71.7459 6.10868 71.7768 5.7789C71.8181 5.43882 71.8387 5.05751 71.8387 4.63498V1.69788H78.3776V7.57208C78.3776 7.92247 78.357 8.22133 78.3158 8.46867C78.2848 8.716 78.2127 8.92211 78.0993 9.087C77.986 9.24159 77.8211 9.3601 77.6047 9.44255C77.3882 9.52499 77.0997 9.58167 76.739 9.61259L74.9767 9.76718L74.4202 8.03583L75.5023 7.92762C75.8424 7.89671 76.0125 7.70605 76.0125 7.35566V7.13924H74.0338C73.9616 7.63391 73.8431 8.09767 73.6782 8.5305C73.5236 8.95303 73.2918 9.42194 72.9826 9.93722L70.8803 9.21067V9.27251ZM74.1265 3.4756V4.14031H76.0125V3.4756H74.1265ZM67.5567 3.6611V4.61952H69.0407V3.6611H67.5567ZM76.0125 5.93349V5.33061H74.1265V5.93349H76.0125ZM69.0407 7.32474V6.31995H67.5567V7.32474H69.0407ZM79.0578 13.2144V15.3631H65.0524V13.2144H66.0727V10.0454H78.053V13.2144H79.0578ZM68.376 13.2144H69.4581V11.8541H68.376V13.2144ZM72.5961 11.8541H71.5141V13.2144H72.5961V11.8541ZM75.7651 11.8541H74.6676V13.2144H75.7651V11.8541Z" fill="#546DAD"/>
</svg>
