<svg width="130" height="17" viewBox="0 0 130 17" fill="none" xmlns="http://www.w3.org/2000/svg">
<path d="M0 4.71557C0 3.09858 0.67823 1.64017 1.76566 0.609375C1.69912 0.988844 1.64389 1.37115 1.59717 1.75628C2.15504 1.38955 2.82336 1.17575 3.53982 1.17575C5.49522 1.17575 7.07965 2.76017 7.07965 4.71557C7.07965 6.67097 5.49522 8.25539 3.53982 8.25539C1.58442 8.25539 0 6.67097 0 4.71557Z" fill="#546DAD"/>
<path d="M7.78761 4.71557C7.78761 3.09858 8.46584 1.64017 9.55328 0.609375C9.48673 0.988844 9.43151 1.37115 9.38478 1.75628C9.94266 1.38955 10.611 1.17575 11.3274 1.17575C13.2828 1.17575 14.8673 2.76017 14.8673 4.71557C14.8673 6.67097 13.2828 8.25539 11.3274 8.25539C9.37204 8.25539 7.78761 6.67097 7.78761 4.71557Z" fill="#546DAD"/>
<path d="M7.07965 12.5032C7.07965 14.1202 6.40142 15.5786 5.31398 16.6094C5.38053 16.2299 5.43575 15.8476 5.48248 15.4625C4.9246 15.8292 4.25628 16.043 3.53982 16.043C1.58442 16.043 0 14.4586 0 12.5032C0 10.5478 1.58442 8.96336 3.53982 8.96336C5.49522 8.96336 7.07965 10.5478 7.07965 12.5032Z" fill="#546DAD"/>
<path fill-rule="evenodd" clip-rule="evenodd" d="M14.8658 12.5041C14.8658 14.4591 13.281 16.0439 11.326 16.0439C9.37099 16.0439 7.78616 14.4591 7.78616 12.5041C7.78616 10.5491 9.37099 8.96425 11.326 8.96425C13.281 8.96425 14.8658 10.5491 14.8658 12.5041ZM13.4499 12.5041C13.4499 13.3635 13.144 14.148 12.6371 14.7611C12.657 14.5529 12.6725 14.3448 12.6867 14.1352C12.3185 14.4425 11.8442 14.628 11.326 14.628C10.1536 14.628 9.20209 13.6779 9.20209 12.5041C9.20209 11.3317 10.1536 10.3802 11.326 10.3802C12.4998 10.3802 13.4499 11.3317 13.4499 12.5041Z" fill="#546DAD"/>
<path d="M31.7613 15.6106C30.876 15.3121 30.0575 15.0032 29.306 14.6841C28.5648 14.3753 27.8699 14.0407 27.2214 13.6804C26.5522 14.051 25.8213 14.401 25.0286 14.7304C24.2359 15.0598 23.3403 15.3893 22.3417 15.7187L21.0909 13.7576C20.8335 14.0458 20.5659 14.3238 20.2879 14.5914C20.0203 14.8591 19.7423 15.1268 19.4541 15.3944L18.8673 12.2134C19.7938 11.2457 20.5916 10.2677 21.2608 9.27941C21.9299 8.29112 22.4961 7.21018 22.9594 6.03659H19.6702L19.6548 3.96737C19.7166 3.77177 19.7783 3.56588 19.8401 3.34969C19.9019 3.12321 19.9585 2.90188 20.01 2.68569C20.0717 2.4695 20.1232 2.26361 20.1644 2.06801C20.2056 1.86212 20.2416 1.68196 20.2725 1.52754L22.6042 1.6974C22.5836 1.79006 22.5527 1.91874 22.5116 2.08345C22.4807 2.24817 22.4395 2.42832 22.388 2.62392C22.3468 2.80923 22.3005 2.99968 22.249 3.19527C22.2079 3.38058 22.1667 3.54015 22.1255 3.67398H23.7006C23.8035 3.29307 23.891 2.90188 23.9631 2.50039C24.0455 2.0989 24.1175 1.68196 24.1793 1.24959L26.65 1.41945C26.5985 1.81065 26.5368 2.19669 26.4647 2.5776C26.4029 2.9482 26.3309 3.31366 26.2485 3.67398H29.167C29.0023 3.49897 28.8325 3.3291 28.6575 3.16439C28.4927 2.98938 28.3383 2.82982 28.1942 2.68569L29.7384 1.31136C29.8722 1.4246 30.0266 1.56357 30.2017 1.72829C30.3767 1.88271 30.5517 2.04228 30.7267 2.20699C30.912 2.36141 31.0818 2.51583 31.2363 2.67025C31.3907 2.82467 31.5245 2.95335 31.6378 3.0563L30.9583 3.67398H32.9194V6.03659H25.6C25.5382 6.23219 25.4713 6.42779 25.3992 6.62339C25.3374 6.80869 25.2705 6.994 25.1985 7.1793H31.8385V9.54192C31.4782 10.0361 31.1127 10.489 30.7421 10.9008C30.3818 11.3126 29.9906 11.6986 29.5685 12.059C30.6083 12.4296 31.7973 12.7281 33.1356 12.9546L31.7613 15.6106ZM27.1287 10.8699C27.8082 10.4273 28.431 9.89708 28.9972 9.27941H25.2448C25.8213 9.89708 26.4493 10.4273 27.1287 10.8699ZM21.7395 13.0318C22.3263 12.8877 22.877 12.7384 23.3918 12.584C23.9065 12.4193 24.3955 12.2443 24.8587 12.059C24.6117 11.8531 24.3697 11.6369 24.133 11.4104C23.8962 11.1839 23.6646 10.9471 23.4381 10.7001C23.1704 11.1119 22.8976 11.5133 22.6197 11.9045C22.3417 12.2854 22.0483 12.6612 21.7395 13.0318Z" fill="#546DAD"/>
<path d="M48.3496 2.05257V4.26077H45.2921V4.92477H42.775V4.26077H40.0881V4.92477H37.602V4.26077H34.529V2.05257H37.602V1.28047L40.0881 1.34224V2.05257H42.775V1.28047L45.2921 1.34224V2.05257H48.3496ZM45.7553 8.58452H48.0716V10.8236H45.7553V13.5568C45.7553 13.9274 45.709 14.2311 45.6164 14.4679C45.534 14.715 45.395 14.9157 45.1994 15.0701C45.0141 15.2246 44.7619 15.3378 44.4428 15.4099C44.1236 15.4922 43.7324 15.5488 43.2692 15.5797L41.5397 15.7033L40.7521 13.3098L42.2654 13.2171C42.5949 13.1965 42.8368 13.1296 42.9912 13.0164C43.1456 12.9031 43.2229 12.6972 43.2229 12.3987V10.8236H43.0067C42.5125 11.3589 41.9978 11.8479 41.4625 12.2906C40.9374 12.723 40.3712 13.1245 39.7639 13.4951C39.1668 13.8657 38.5285 14.2054 37.849 14.5142C37.1799 14.8334 36.4593 15.1371 35.6872 15.4253L34.4364 13.1553C35.0129 13.0009 35.543 12.8414 36.0269 12.6766C36.5107 12.5016 36.9586 12.3215 37.3703 12.1362C37.7924 11.9406 38.1836 11.7347 38.5439 11.5185C38.9145 11.3023 39.2646 11.0707 39.594 10.8236H35.4247V8.53819L35.7798 7.68888H38.405L38.0189 8.58452H43.2229V7.42637H35.1467V5.1564H47.7628V7.42637H45.7553V8.58452Z" fill="#546DAD"/>
<path d="M63.7334 10.8545H59.3942C59.7545 11.0913 60.12 11.3332 60.4906 11.5803C60.8715 11.8273 61.2369 12.0744 61.587 12.3215C61.937 12.5685 62.2664 12.8053 62.5752 13.0318C62.8841 13.248 63.1517 13.4384 63.3782 13.6032L61.7259 15.7496C61.0774 15.1937 60.3825 14.6223 59.6413 14.0355C58.9001 13.4487 58.1589 12.8877 57.4176 12.3524L58.7611 10.8545H54.4991L55.9815 12.445C55.405 12.9803 54.741 13.5259 53.9895 14.0819C53.238 14.6378 52.4659 15.1525 51.6732 15.6261L49.9746 13.5568C50.6849 13.1862 51.3798 12.7796 52.0593 12.3369C52.7387 11.884 53.4079 11.3898 54.0667 10.8545H49.6658V8.47642H52.7233V5.89762H50.3761V3.58132H52.7233V1.31136L55.2866 1.37312V3.58132H58.1125V1.31136L60.6759 1.37312V3.58132H63.0231V5.89762H60.6759V8.47642H63.7334V10.8545ZM55.2866 8.47642H58.1125V5.89762H55.2866V8.47642Z" fill="#546DAD"/>
<path d="M66.0379 3.55044H65.1577V1.92903H70.5624C70.5109 1.7952 70.4594 1.67167 70.4079 1.55843C70.3668 1.43489 70.3359 1.34224 70.3153 1.28047H73.2956C73.3265 1.37312 73.3625 1.47607 73.4037 1.58931C73.4449 1.70255 73.4809 1.81579 73.5118 1.92903H78.8701V3.55044H68.8329V3.98281H78.1598V5.09464H66.0379V3.55044ZM77.9282 7.93596H66.0996V5.55789H77.9282V7.93596ZM75.1641 6.49985H68.7711V6.97855H75.1641V6.49985ZM65.6673 8.41466H69.3424V14.3135C69.3424 14.5606 69.3219 14.7613 69.2807 14.9157C69.2498 15.0701 69.1932 15.1937 69.1108 15.2863C69.0285 15.379 68.9101 15.4459 68.7557 15.4871C68.6115 15.5283 68.4262 15.5643 68.1997 15.5952L67.7365 15.6569L67.1651 13.9583L67.5975 13.9274C67.7313 13.9171 67.8394 13.8966 67.9218 13.8657C68.0041 13.8245 68.0453 13.7318 68.0453 13.5877V13.1553H67.1034C67.021 13.6495 66.8923 14.1179 66.7173 14.5606C66.5526 15.0032 66.3982 15.3944 66.2541 15.7341L64.679 15.1165C64.8231 14.7973 64.9518 14.5039 65.065 14.2363C65.1886 13.9686 65.2915 13.6804 65.3739 13.3715C65.4665 13.0627 65.5386 12.7178 65.59 12.3369C65.6415 11.9457 65.6673 11.4773 65.6673 10.9317V8.41466ZM79.4569 12.5377C79.4569 12.7127 79.4518 12.8671 79.4415 13.0009C79.4312 13.1347 79.4209 13.2686 79.4106 13.4024C79.4003 13.5259 79.3849 13.6598 79.3643 13.8039C79.354 13.948 79.3385 14.1127 79.318 14.298C79.2871 14.5657 79.2356 14.7767 79.1635 14.9312C79.1018 15.0959 79.0143 15.2194 78.901 15.3018C78.7981 15.3944 78.6694 15.4562 78.515 15.4871C78.3606 15.518 78.1804 15.5334 77.9745 15.5334H77.6502C77.2384 15.5334 76.9605 15.4562 76.8164 15.3018C76.6722 15.1576 76.6053 14.8488 76.6156 14.3753V13.5723L76.2759 13.7576C76.2244 13.5826 76.1575 13.3715 76.0751 13.1245C76.0031 12.8774 75.9259 12.6252 75.8435 12.3678C75.8332 12.7178 75.8126 13.0421 75.7817 13.3406C75.7612 13.6289 75.7251 13.9017 75.6737 14.1591C75.6325 14.4164 75.5759 14.6635 75.5038 14.9003C75.442 15.1474 75.3648 15.3996 75.2722 15.6569L73.7434 14.8231L73.3574 15.5488C73.2235 15.4047 73.0228 15.2194 72.7551 14.9929C72.4875 14.7665 72.2147 14.54 71.9367 14.3135C71.7926 14.5194 71.6124 14.715 71.3962 14.9003C71.18 15.0959 70.9227 15.3069 70.6241 15.5334L69.5277 14.2672C69.9189 14.051 70.2329 13.8554 70.4697 13.6804C70.7065 13.4951 70.8866 13.2995 71.0102 13.0936C71.144 12.8877 71.2315 12.656 71.2727 12.3987C71.3139 12.131 71.3345 11.8119 71.3345 11.4413V10.0515H72.508V12.0126C72.508 12.3729 72.4926 12.6921 72.4617 12.97C72.7088 13.1245 72.9765 13.3046 73.2647 13.5105C73.5632 13.7061 73.8155 13.8811 74.0214 14.0355C74.1861 13.6443 74.3045 13.2223 74.3765 12.7693C74.4486 12.306 74.4898 11.745 74.5001 11.0861V8.41466H78.0517V13.0164C78.0517 13.2531 78.1083 13.3715 78.2216 13.3715H78.3914C78.4635 13.3715 78.515 13.3355 78.5459 13.2634C78.587 13.1914 78.6231 13.0524 78.654 12.8465C78.6745 12.7333 78.69 12.6149 78.7003 12.4913C78.7209 12.3678 78.7312 12.2546 78.7312 12.1516L79.4569 12.5377ZM72.8014 12.97V9.74267H71.0256V13.0627H69.8984V8.4301H73.9596V12.97H72.8014ZM67.1806 9.72722V10.4221H68.0453V9.72722H67.1806ZM76.1524 10.9163C76.2141 11.0707 76.2862 11.2508 76.3685 11.4567C76.4612 11.6523 76.5487 11.8582 76.6311 12.0744V10.0515H75.859V11.0398L76.1524 10.9163ZM68.0453 12.1207V11.4567H67.1806V12.1207H68.0453Z" fill="#546DAD"/>
<path d="M91.4435 4.3071C91.3714 4.47181 91.2942 4.64167 91.2119 4.81668C91.1398 4.98139 91.0678 5.13581 90.9957 5.27994H93.6363V13.4951C93.6363 13.9068 93.6002 14.2414 93.5282 14.4988C93.4561 14.7562 93.3377 14.962 93.173 15.1165C93.0186 15.2709 92.8024 15.3841 92.5245 15.4562C92.2568 15.5385 91.9222 15.5952 91.5207 15.6261L90.3317 15.7341L89.9302 14.5297H84.2012V10.9471C84.1498 10.9986 84.0931 11.0501 84.0314 11.1016C83.9696 11.1427 83.913 11.1891 83.8615 11.2405L83.4137 10.7155V15.6415H81.0356V5.27994H83.6144C83.563 5.13581 83.5012 4.97625 83.4291 4.80124C83.3571 4.62623 83.285 4.46152 83.213 4.3071H80.418V2.06801H85.8844C85.8329 1.91359 85.7815 1.76947 85.73 1.63564C85.6888 1.49151 85.6579 1.38342 85.6373 1.31136H88.5713C88.6125 1.4246 88.6485 1.54813 88.6794 1.68196C88.7206 1.8055 88.7618 1.93418 88.8029 2.06801H94.2385V4.3071H91.4435ZM88.7257 4.3071H85.9153C85.9977 4.4924 86.0749 4.67256 86.1469 4.84756C86.219 5.02257 86.2808 5.1667 86.3322 5.27994H88.2779L88.7257 4.3071ZM83.4137 8.95513C83.7328 8.69776 84.0417 8.44039 84.3402 8.18303C84.649 7.92566 84.9219 7.68888 85.1586 7.4727H83.4137V8.95513ZM87.0117 8.47642C86.8778 8.61025 86.7183 8.75953 86.533 8.92424C86.358 9.08896 86.1675 9.26396 85.9616 9.44927H88.7412C88.525 9.26396 88.3191 9.0941 88.1235 8.93968C87.9279 8.77497 87.7529 8.6257 87.5985 8.49187L88.6485 7.4727H85.9462L87.0117 8.47642ZM91.2273 7.4727H89.4361C89.7037 7.67859 89.992 7.91022 90.3008 8.16759C90.6199 8.42495 90.9288 8.67717 91.2273 8.92424V7.4727ZM90.8258 13.248C90.9906 13.2274 91.0986 13.1811 91.1501 13.109C91.2016 13.0267 91.2273 12.8619 91.2273 12.6149V10.839L90.8258 11.3641C90.7023 11.2302 90.5633 11.0913 90.4089 10.9471V13.2943L90.8258 13.248ZM88.5095 11.4104H86.1006V12.5068H88.5095V11.4104Z" fill="#546DAD"/>
<path d="M110.928 5.29629L110.65 6.2875H112.741L112.765 12.4161C112.765 12.6901 112.745 12.9157 112.705 13.093C112.673 13.2783 112.608 13.4274 112.511 13.5402C112.415 13.6531 112.278 13.7377 112.1 13.7941C111.923 13.8505 111.698 13.8908 111.424 13.915L110.517 13.9996L110.118 12.7666L110.916 12.6941C111.085 12.678 111.194 12.6296 111.242 12.549C111.299 12.4685 111.327 12.2871 111.327 12.0051V9.47871L110.831 10.1194C110.767 10.0549 110.698 9.9864 110.626 9.91387C110.561 9.84135 110.489 9.76479 110.408 9.6842V12.549H106.02V9.75673C105.924 9.82926 105.831 9.89776 105.742 9.96222C105.654 10.0267 105.569 10.0871 105.488 10.1435L104.981 9.50288V13.7457H103.627V6.2875H105.682L105.452 5.29629H102.998V3.96662H107.422L107.253 3.10838L108.873 2.99959L109.042 3.96662H113.358V5.29629H110.928ZM109.489 5.29629H106.878L107.108 6.2875H109.224L109.489 5.29629ZM104.981 9.01937C105.287 8.80984 105.597 8.58017 105.911 8.33036C106.226 8.07248 106.492 7.82669 106.709 7.59299H104.981V9.01937ZM109.816 9.12816C109.614 8.94281 109.421 8.76955 109.236 8.60838C109.05 8.44721 108.889 8.3223 108.752 8.23365L109.393 7.59299H107.036L107.797 8.17321C107.66 8.33439 107.503 8.49556 107.326 8.65673C107.157 8.80984 106.979 8.96699 106.794 9.12816H109.816ZM111.327 7.59299H109.816C109.921 7.67358 110.037 7.76625 110.166 7.87102C110.303 7.97578 110.44 8.08457 110.577 8.19739C110.714 8.31021 110.847 8.42706 110.976 8.54794C111.105 8.66076 111.222 8.76552 111.327 8.86223V7.59299ZM109.103 10.3732H107.338V11.2798H109.103V10.3732Z" fill="#546DAD"/>
<path d="M116.638 6.62596H115.187V4.07541H119.309L119.068 3.0842L120.651 3.01168L120.857 4.07541H124.918V6.63805H123.48V5.35673H116.638V6.62596ZM122.549 9.41827C122.718 9.74867 122.895 10.0428 123.081 10.3007C123.274 10.5505 123.488 10.7802 123.721 10.9897C123.955 11.1992 124.213 11.3967 124.495 11.582C124.785 11.7674 125.112 11.9567 125.474 12.1501L124.592 13.2864C124.213 13.0527 123.867 12.815 123.552 12.5732C123.246 12.3315 122.964 12.0776 122.706 11.8117C122.456 11.5377 122.227 11.2476 122.017 10.9413C121.816 10.6271 121.626 10.2846 121.449 9.91387C121.433 9.92999 121.413 9.94208 121.389 9.95014C121.364 9.95014 121.344 9.95417 121.328 9.96222C121.393 10.2443 121.437 10.5344 121.461 10.8326C121.485 11.1227 121.497 11.4289 121.497 11.7512C121.497 12.1461 121.469 12.4725 121.413 12.7304C121.356 12.9963 121.264 13.2058 121.135 13.3589C121.014 13.5201 120.849 13.6369 120.639 13.7095C120.43 13.782 120.172 13.8304 119.865 13.8545L118.79 13.9391L118.379 12.6095L119.37 12.537C119.595 12.5208 119.753 12.4443 119.841 12.3073C119.938 12.1703 119.986 11.9205 119.986 11.5578V11.2435C119.672 11.4853 119.321 11.723 118.935 11.9567C118.548 12.1904 118.145 12.4161 117.726 12.6337C117.315 12.8432 116.896 13.0406 116.469 13.226C116.042 13.4113 115.631 13.5765 115.236 13.7216L114.631 12.5249C115.687 12.2428 116.642 11.8842 117.496 11.449C118.35 11.0139 119.12 10.5183 119.805 9.96222C119.789 9.92193 119.773 9.87761 119.757 9.82926C119.749 9.78091 119.737 9.73255 119.72 9.6842C119.14 10.071 118.491 10.4296 117.774 10.76C117.057 11.0904 116.295 11.3886 115.49 11.6545L114.946 10.5062C115.727 10.2967 116.481 10.0388 117.206 9.73255C117.939 9.42633 118.604 9.06772 119.201 8.65673L119.031 8.40288C118.491 8.69299 117.923 8.95893 117.327 9.20069C116.739 9.44244 116.13 9.65197 115.502 9.82926L114.982 8.60838C115.691 8.45527 116.364 8.26186 117.001 8.02816C117.645 7.79446 118.23 7.53255 118.753 7.24244H116.807V5.99739H123.311V7.24244H120.893C120.675 7.40362 120.446 7.56076 120.204 7.71387C120.502 8.06845 120.74 8.43109 120.917 8.80179C121.425 8.59226 121.928 8.35453 122.428 8.0886C122.936 7.81461 123.395 7.49629 123.806 7.13365L124.568 8.29409C124.286 8.47138 123.971 8.65673 123.625 8.85014C123.278 9.04354 122.92 9.23292 122.549 9.41827Z" fill="#546DAD"/>
<path fill-rule="evenodd" clip-rule="evenodd" d="M127.234 1.99959H101.234C100.682 1.99959 100.234 2.4473 100.234 2.99959V13.9996C100.234 14.5519 100.682 14.9996 101.234 14.9996H127.234C127.787 14.9996 128.234 14.5519 128.234 13.9996V2.99959C128.234 2.4473 127.787 1.99959 127.234 1.99959ZM101.234 0.999588C100.13 0.999588 99.2344 1.89502 99.2344 2.99959V13.9996C99.2344 15.1042 100.13 15.9996 101.234 15.9996H127.234C128.339 15.9996 129.234 15.1042 129.234 13.9996V2.99959C129.234 1.89502 128.339 0.999588 127.234 0.999588H101.234Z" fill="#546DAD"/>
</svg>
