<svg width="80" height="17" viewBox="0 0 80 17" fill="none" xmlns="http://www.w3.org/2000/svg">
<path d="M0 4.71557C0 3.09858 0.67823 1.64017 1.76566 0.609375C1.69912 0.988844 1.64389 1.37115 1.59717 1.75628C2.15504 1.38955 2.82336 1.17575 3.53982 1.17575C5.49522 1.17575 7.07965 2.76017 7.07965 4.71557C7.07965 6.67097 5.49522 8.25539 3.53982 8.25539C1.58442 8.25539 0 6.67097 0 4.71557Z" fill="#546DAD"/>
<path d="M7.78761 4.71557C7.78761 3.09858 8.46584 1.64017 9.55328 0.609375C9.48673 0.988844 9.43151 1.37115 9.38478 1.75628C9.94266 1.38955 10.611 1.17575 11.3274 1.17575C13.2828 1.17575 14.8673 2.76017 14.8673 4.71557C14.8673 6.67097 13.2828 8.25539 11.3274 8.25539C9.37204 8.25539 7.78761 6.67097 7.78761 4.71557Z" fill="#546DAD"/>
<path d="M7.07965 12.5032C7.07965 14.1202 6.40142 15.5786 5.31398 16.6094C5.38053 16.2299 5.43575 15.8476 5.48248 15.4625C4.9246 15.8292 4.25628 16.043 3.53982 16.043C1.58442 16.043 0 14.4586 0 12.5032C0 10.5478 1.58442 8.96336 3.53982 8.96336C5.49522 8.96336 7.07965 10.5478 7.07965 12.5032Z" fill="#546DAD"/>
<path fill-rule="evenodd" clip-rule="evenodd" d="M14.8658 12.5041C14.8658 14.4591 13.281 16.0439 11.326 16.0439C9.37099 16.0439 7.78616 14.4591 7.78616 12.5041C7.78616 10.5491 9.37099 8.96424 11.326 8.96424C13.281 8.96424 14.8658 10.5491 14.8658 12.5041ZM13.4499 12.5041C13.4499 13.3635 13.144 14.148 12.6371 14.7611C12.657 14.5529 12.6725 14.3448 12.6867 14.1352C12.3185 14.4425 11.8442 14.628 11.326 14.628C10.1536 14.628 9.20209 13.6779 9.20209 12.5041C9.20209 11.3317 10.1536 10.3802 11.326 10.3802C12.4998 10.3802 13.4499 11.3317 13.4499 12.5041Z" fill="#546DAD"/>
<path d="M29.9298 12.1783C30.6122 11.5284 31.1829 10.812 31.643 10.029C32.1032 9.2318 32.4685 8.36667 32.7376 7.4364L30.0954 6.70578C30.0473 6.8233 30.0076 6.94932 29.9765 7.08242C29.9283 7.19994 29.8887 7.31888 29.8576 7.4364H25.9553C26.0345 7.25941 26.1053 7.07392 26.1691 6.88277C26.2483 6.67605 26.3191 6.4764 26.3829 6.28525H33.6905V4.5564H30.9053L32.7149 2.761C32.1599 2.40702 31.5482 2.09693 30.8827 1.83074C30.2328 1.58012 29.6296 1.39463 29.0731 1.27711L28.2632 1.98649C28.6753 2.34047 29.0802 2.74684 29.4767 3.2056C29.8731 3.66295 30.2229 4.11463 30.5245 4.55782H26.9068C27.0342 4.05516 27.1446 3.53835 27.2395 3.00737C27.3499 2.47499 27.4618 1.91428 27.5722 1.32383L24.7645 1.03357C24.6696 1.68348 24.5662 2.29658 24.4544 2.87286C24.3595 3.44914 24.2476 4.00985 24.1216 4.5564H22.5754L23.146 2.07428L20.6002 1.6764L19.3853 6.83888L21.9567 7.25941L22.1705 6.28383H23.6699C23.1786 7.83428 22.5429 9.25304 21.7655 10.5373C20.9726 11.8088 19.9814 13.0421 18.7906 14.2385L19.5043 14.9026C20.6144 14.1932 21.5829 13.4555 22.4083 12.6867C23.2183 11.9192 23.9234 11.0768 24.5266 10.1606C24.7645 10.6038 25.0179 11.0173 25.2883 11.401C25.5588 11.7706 25.859 12.1245 26.1931 12.4644C24.7489 13.5575 22.8841 14.4212 20.6002 15.0569L20.957 15.8541C22.3687 15.6771 23.6388 15.4109 24.7659 15.0569C25.893 14.7171 26.8997 14.2895 27.7889 13.7713C28.5025 14.2286 29.2728 14.6137 30.0983 14.9238C30.9237 15.2339 31.8115 15.4775 32.7645 15.6545L34.3829 13.2389C33.6055 13.1214 32.8437 12.9798 32.0976 12.8183C31.3344 12.6442 30.6122 12.429 29.9298 12.1783ZM27.7167 11.0923C26.8275 10.5458 26.0983 9.88171 25.5262 9.0987H29.1199C28.7234 9.82224 28.2561 10.4877 27.7167 11.0923Z" fill="#546DAD"/>
<path d="M48.4485 8.66119H51.1798V10.3079H48.4485V14.1423C48.4485 14.6534 48.2743 15.0669 47.9274 15.3826C47.5805 15.6984 47.0835 15.8555 46.4378 15.8555H43.4587C43.4587 15.6899 43.4332 15.51 43.3837 15.3146C43.3511 15.1192 43.2931 14.9168 43.2095 14.7058C43.1274 14.5104 43.0354 14.3221 42.9362 14.1423C42.8201 13.9469 42.6955 13.7812 42.5639 13.6467H45.6435V11.4591C45.1139 11.9249 44.5178 12.3681 43.8552 12.79C43.2095 13.1964 42.5143 13.5801 41.7695 13.9398C41.0247 14.3008 40.2545 14.6322 39.4601 14.9323C38.6488 15.2325 37.829 15.5044 37.0021 15.7437L36.3819 14.8644C37.6732 14.1734 38.8485 13.4654 39.9076 12.7447C40.9837 12.0226 41.9762 11.2113 42.8867 10.3093H40.4031L40.2785 10.8729L37.5217 10.5798L38.3161 7.1065L41.0729 7.42225L40.7755 8.6626H45.6421V6.87995H37.6208V5.25588H50.806V6.87995H48.4485V8.66119ZM48.3239 2.18898V1.1511H45.4679V2.18898H42.612V1.1511H39.7561V2.18898H36.801V3.8796H39.7561V4.94013H42.612V3.8796H45.4679V4.94013H48.3239V3.8796H51.6513V2.18898H48.3239Z" fill="#546DAD"/>
<path d="M63.2865 13.4996C65.8385 13.4996 67.5964 11.5855 67.5964 8.4475C67.5964 5.3225 65.8385 3.49959 63.2865 3.49959C60.7344 3.49959 58.9766 5.3225 58.9766 8.4475C58.9766 11.5855 60.7344 13.4996 63.2865 13.4996ZM63.2865 11.8329C61.8542 11.8329 60.9557 10.5048 60.9557 8.4475C60.9557 6.39021 61.8542 5.15323 63.2865 5.15323C64.7187 5.15323 65.6302 6.39021 65.6302 8.4475C65.6302 10.5048 64.7187 11.8329 63.2865 11.8329Z" fill="#546DAD"/>
<path d="M68.0887 13.3173H70.0418L70.7189 10.8433H73.8309L74.508 13.3173H76.5392L73.4533 3.66886H71.1746L68.0887 13.3173ZM71.1356 9.34594L71.422 8.29125C71.7085 7.28865 71.9819 6.1949 72.2424 5.14021H72.2944C72.5809 6.16886 72.8413 7.28865 73.1408 8.29125L73.4272 9.34594H71.1356Z" fill="#546DAD"/>
<path fill-rule="evenodd" clip-rule="evenodd" d="M77.2578 2.15193H58.2578C57.7055 2.15193 57.2578 2.59965 57.2578 3.15193V14.1519C57.2578 14.7042 57.7055 15.1519 58.2578 15.1519H77.2578C77.8101 15.1519 78.2578 14.7042 78.2578 14.1519V3.15193C78.2578 2.59965 77.8101 2.15193 77.2578 2.15193ZM58.2578 1.15193C57.1532 1.15193 56.2578 2.04736 56.2578 3.15193V14.1519C56.2578 15.2565 57.1532 16.1519 58.2578 16.1519H77.2578C78.3624 16.1519 79.2578 15.2565 79.2578 14.1519V3.15193C79.2578 2.04736 78.3624 1.15193 77.2578 1.15193H58.2578Z" fill="#546DAD"/>
</svg>
