<svg width="130" height="17" viewBox="0 0 130 17" fill="none" xmlns="http://www.w3.org/2000/svg">
<path d="M0 4.71557C0 3.09858 0.67823 1.64017 1.76566 0.609375C1.69912 0.988844 1.64389 1.37115 1.59717 1.75628C2.15504 1.38955 2.82336 1.17575 3.53982 1.17575C5.49522 1.17575 7.07965 2.76017 7.07965 4.71557C7.07965 6.67097 5.49522 8.25539 3.53982 8.25539C1.58442 8.25539 0 6.67097 0 4.71557Z" fill="#546DAD"/>
<path d="M7.78761 4.71557C7.78761 3.09858 8.46584 1.64017 9.55328 0.609375C9.48673 0.988844 9.43151 1.37115 9.38478 1.75628C9.94266 1.38955 10.611 1.17575 11.3274 1.17575C13.2828 1.17575 14.8673 2.76017 14.8673 4.71557C14.8673 6.67097 13.2828 8.25539 11.3274 8.25539C9.37204 8.25539 7.78761 6.67097 7.78761 4.71557Z" fill="#546DAD"/>
<path d="M7.07965 12.5032C7.07965 14.1202 6.40142 15.5786 5.31398 16.6094C5.38053 16.2299 5.43575 15.8476 5.48248 15.4625C4.9246 15.8292 4.25628 16.043 3.53982 16.043C1.58442 16.043 0 14.4586 0 12.5032C0 10.5478 1.58442 8.96336 3.53982 8.96336C5.49522 8.96336 7.07965 10.5478 7.07965 12.5032Z" fill="#546DAD"/>
<path fill-rule="evenodd" clip-rule="evenodd" d="M14.8658 12.5041C14.8658 14.4591 13.281 16.0439 11.326 16.0439C9.37099 16.0439 7.78616 14.4591 7.78616 12.5041C7.78616 10.5491 9.37099 8.96425 11.326 8.96425C13.281 8.96425 14.8658 10.5491 14.8658 12.5041ZM13.4499 12.5041C13.4499 13.3635 13.144 14.148 12.6371 14.7611C12.657 14.5529 12.6725 14.3448 12.6867 14.1352C12.3185 14.4425 11.8442 14.628 11.326 14.628C10.1536 14.628 9.20209 13.6779 9.20209 12.5041C9.20209 11.3317 10.1536 10.3802 11.326 10.3802C12.4998 10.3802 13.4499 11.3317 13.4499 12.5041Z" fill="#546DAD"/>
<path d="M31.7613 15.6106C30.876 15.3121 30.0575 15.0032 29.306 14.6841C28.5648 14.3753 27.8699 14.0407 27.2214 13.6804C26.5522 14.051 25.8213 14.401 25.0286 14.7304C24.2359 15.0598 23.3403 15.3893 22.3417 15.7187L21.0909 13.7576C20.8335 14.0458 20.5659 14.3238 20.2879 14.5914C20.0203 14.8591 19.7423 15.1268 19.4541 15.3944L18.8673 12.2134C19.7938 11.2457 20.5916 10.2677 21.2608 9.27941C21.9299 8.29112 22.4961 7.21018 22.9594 6.03659H19.6702L19.6548 3.96737C19.7166 3.77177 19.7783 3.56588 19.8401 3.34969C19.9019 3.12321 19.9585 2.90188 20.01 2.68569C20.0717 2.4695 20.1232 2.26361 20.1644 2.06801C20.2056 1.86212 20.2416 1.68196 20.2725 1.52754L22.6042 1.6974C22.5836 1.79006 22.5527 1.91874 22.5116 2.08345C22.4807 2.24817 22.4395 2.42832 22.388 2.62392C22.3468 2.80923 22.3005 2.99968 22.249 3.19527C22.2079 3.38058 22.1667 3.54015 22.1255 3.67398H23.7006C23.8035 3.29307 23.891 2.90188 23.9631 2.50039C24.0455 2.0989 24.1175 1.68196 24.1793 1.24959L26.65 1.41945C26.5985 1.81065 26.5368 2.19669 26.4647 2.5776C26.4029 2.9482 26.3309 3.31366 26.2485 3.67398H29.167C29.0023 3.49897 28.8325 3.3291 28.6575 3.16439C28.4927 2.98938 28.3383 2.82982 28.1942 2.68569L29.7384 1.31136C29.8722 1.4246 30.0266 1.56357 30.2017 1.72829C30.3767 1.88271 30.5517 2.04228 30.7267 2.20699C30.912 2.36141 31.0818 2.51583 31.2363 2.67025C31.3907 2.82467 31.5245 2.95335 31.6378 3.0563L30.9583 3.67398H32.9194V6.03659H25.6C25.5382 6.23219 25.4713 6.42779 25.3992 6.62339C25.3374 6.80869 25.2705 6.994 25.1985 7.1793H31.8385V9.54192C31.4782 10.0361 31.1127 10.489 30.7421 10.9008C30.3818 11.3126 29.9906 11.6986 29.5685 12.059C30.6083 12.4296 31.7973 12.7281 33.1356 12.9546L31.7613 15.6106ZM27.1287 10.8699C27.8082 10.4273 28.431 9.89708 28.9972 9.27941H25.2448C25.8213 9.89708 26.4493 10.4273 27.1287 10.8699ZM21.7395 13.0318C22.3263 12.8877 22.877 12.7384 23.3918 12.584C23.9065 12.4193 24.3955 12.2443 24.8587 12.059C24.6117 11.8531 24.3697 11.6369 24.133 11.4104C23.8962 11.1839 23.6646 10.9471 23.4381 10.7001C23.1704 11.1119 22.8976 11.5133 22.6197 11.9045C22.3417 12.2854 22.0483 12.6612 21.7395 13.0318Z" fill="#546DAD"/>
<path d="M48.3496 2.05257V4.26077H45.2921V4.92477H42.775V4.26077H40.0881V4.92477H37.602V4.26077H34.529V2.05257H37.602V1.28047L40.0881 1.34224V2.05257H42.775V1.28047L45.2921 1.34224V2.05257H48.3496ZM45.7553 8.58452H48.0716V10.8236H45.7553V13.5568C45.7553 13.9274 45.709 14.2311 45.6164 14.4679C45.534 14.715 45.395 14.9157 45.1994 15.0701C45.0141 15.2246 44.7619 15.3378 44.4428 15.4099C44.1236 15.4922 43.7324 15.5488 43.2692 15.5797L41.5397 15.7033L40.7521 13.3098L42.2654 13.2171C42.5949 13.1965 42.8368 13.1296 42.9912 13.0164C43.1456 12.9031 43.2228 12.6972 43.2228 12.3987V10.8236H43.0067C42.5125 11.3589 41.9978 11.8479 41.4625 12.2906C40.9374 12.723 40.3712 13.1245 39.7638 13.4951C39.1668 13.8657 38.5285 14.2054 37.849 14.5142C37.1799 14.8334 36.4593 15.1371 35.6872 15.4253L34.4364 13.1553C35.0129 13.0009 35.543 12.8414 36.0269 12.6766C36.5107 12.5016 36.9586 12.3215 37.3703 12.1362C37.7924 11.9406 38.1836 11.7347 38.5439 11.5185C38.9145 11.3023 39.2646 11.0707 39.594 10.8236H35.4247V8.53819L35.7798 7.68888H38.405L38.0189 8.58452H43.2228V7.42637H35.1467V5.1564H47.7628V7.42637H45.7553V8.58452Z" fill="#546DAD"/>
<path d="M63.7334 10.8545H59.3942C59.7545 11.0913 60.12 11.3332 60.4906 11.5803C60.8715 11.8273 61.2369 12.0744 61.587 12.3215C61.937 12.5685 62.2664 12.8053 62.5752 13.0318C62.8841 13.248 63.1517 13.4384 63.3782 13.6032L61.7259 15.7496C61.0774 15.1937 60.3825 14.6223 59.6413 14.0355C58.9001 13.4487 58.1588 12.8877 57.4176 12.3524L58.7611 10.8545H54.4991L55.9815 12.445C55.405 12.9803 54.741 13.5259 53.9895 14.0819C53.238 14.6378 52.4659 15.1525 51.6732 15.6261L49.9746 13.5568C50.6849 13.1862 51.3798 12.7796 52.0593 12.3369C52.7387 11.884 53.4079 11.3898 54.0667 10.8545H49.6658V8.47642H52.7233V5.89762H50.3761V3.58132H52.7233V1.31136L55.2866 1.37312V3.58132H58.1125V1.31136L60.6759 1.37312V3.58132H63.0231V5.89762H60.6759V8.47642H63.7334V10.8545ZM55.2866 8.47642H58.1125V5.89762H55.2866V8.47642Z" fill="#546DAD"/>
<path d="M66.0379 3.55044H65.1577V1.92903H70.5624C70.5109 1.7952 70.4594 1.67167 70.4079 1.55843C70.3668 1.43489 70.3359 1.34224 70.3153 1.28047H73.2956C73.3265 1.37312 73.3625 1.47607 73.4037 1.58931C73.4449 1.70255 73.4809 1.81579 73.5118 1.92903H78.8701V3.55044H68.8329V3.98281H78.1598V5.09464H66.0379V3.55044ZM77.9282 7.93596H66.0996V5.55789H77.9282V7.93596ZM75.1641 6.49985H68.7711V6.97855H75.1641V6.49985ZM65.6673 8.41466H69.3424V14.3135C69.3424 14.5606 69.3218 14.7613 69.2807 14.9157C69.2498 15.0701 69.1932 15.1937 69.1108 15.2863C69.0285 15.379 68.9101 15.4459 68.7556 15.4871C68.6115 15.5283 68.4262 15.5643 68.1997 15.5952L67.7365 15.6569L67.1651 13.9583L67.5975 13.9274C67.7313 13.9171 67.8394 13.8966 67.9218 13.8657C68.0041 13.8245 68.0453 13.7318 68.0453 13.5877V13.1553H67.1034C67.021 13.6495 66.8923 14.1179 66.7173 14.5606C66.5526 15.0032 66.3982 15.3944 66.2541 15.7341L64.679 15.1165C64.8231 14.7973 64.9518 14.5039 65.065 14.2363C65.1886 13.9686 65.2915 13.6804 65.3739 13.3715C65.4665 13.0627 65.5386 12.7178 65.59 12.3369C65.6415 11.9457 65.6673 11.4773 65.6673 10.9317V8.41466ZM79.4569 12.5377C79.4569 12.7127 79.4518 12.8671 79.4415 13.0009C79.4312 13.1347 79.4209 13.2686 79.4106 13.4024C79.4003 13.5259 79.3849 13.6598 79.3643 13.8039C79.354 13.948 79.3385 14.1127 79.3179 14.298C79.2871 14.5657 79.2356 14.7767 79.1635 14.9312C79.1018 15.0959 79.0143 15.2194 78.901 15.3018C78.7981 15.3944 78.6694 15.4562 78.515 15.4871C78.3605 15.518 78.1804 15.5334 77.9745 15.5334H77.6502C77.2384 15.5334 76.9605 15.4562 76.8164 15.3018C76.6722 15.1576 76.6053 14.8488 76.6156 14.3753V13.5723L76.2759 13.7576C76.2244 13.5826 76.1575 13.3715 76.0751 13.1245C76.0031 12.8774 75.9259 12.6252 75.8435 12.3678C75.8332 12.7178 75.8126 13.0421 75.7817 13.3406C75.7611 13.6289 75.7251 13.9017 75.6736 14.1591C75.6325 14.4164 75.5758 14.6635 75.5038 14.9003C75.442 15.1474 75.3648 15.3996 75.2722 15.6569L73.7434 14.8231L73.3573 15.5488C73.2235 15.4047 73.0228 15.2194 72.7551 14.9929C72.4875 14.7665 72.2146 14.54 71.9367 14.3135C71.7926 14.5194 71.6124 14.715 71.3962 14.9003C71.18 15.0959 70.9227 15.3069 70.6241 15.5334L69.5277 14.2672C69.9189 14.051 70.2329 13.8554 70.4697 13.6804C70.7065 13.4951 70.8866 13.2995 71.0102 13.0936C71.144 12.8877 71.2315 12.656 71.2727 12.3987C71.3139 12.131 71.3345 11.8119 71.3345 11.4413V10.0515H72.508V12.0126C72.508 12.3729 72.4926 12.6921 72.4617 12.97C72.7088 13.1245 72.9764 13.3046 73.2647 13.5105C73.5632 13.7061 73.8155 13.8811 74.0214 14.0355C74.1861 13.6443 74.3045 13.2223 74.3765 12.7693C74.4486 12.306 74.4898 11.745 74.5001 11.0861V8.41466H78.0517V13.0164C78.0517 13.2531 78.1083 13.3715 78.2216 13.3715H78.3914C78.4635 13.3715 78.515 13.3355 78.5459 13.2634C78.587 13.1914 78.6231 13.0524 78.6539 12.8465C78.6745 12.7333 78.69 12.6149 78.7003 12.4913C78.7209 12.3678 78.7312 12.2546 78.7312 12.1516L79.4569 12.5377ZM72.8014 12.97V9.74267H71.0256V13.0627H69.8984V8.4301H73.9596V12.97H72.8014ZM67.1806 9.72722V10.4221H68.0453V9.72722H67.1806ZM76.1523 10.9163C76.2141 11.0707 76.2862 11.2508 76.3685 11.4567C76.4612 11.6523 76.5487 11.8582 76.6311 12.0744V10.0515H75.8589V11.0398L76.1523 10.9163ZM68.0453 12.1207V11.4567H67.1806V12.1207H68.0453Z" fill="#546DAD"/>
<path d="M91.4435 4.3071C91.3714 4.47181 91.2942 4.64167 91.2119 4.81668C91.1398 4.98139 91.0678 5.13581 90.9957 5.27994H93.6363V13.4951C93.6363 13.9068 93.6002 14.2414 93.5282 14.4988C93.4561 14.7562 93.3377 14.962 93.173 15.1165C93.0186 15.2709 92.8024 15.3841 92.5244 15.4562C92.2568 15.5385 91.9222 15.5952 91.5207 15.6261L90.3317 15.7341L89.9302 14.5297H84.2012V10.9471C84.1498 10.9986 84.0931 11.0501 84.0314 11.1016C83.9696 11.1427 83.913 11.1891 83.8615 11.2405L83.4137 10.7155V15.6415H81.0356V5.27994H83.6144C83.563 5.13581 83.5012 4.97625 83.4291 4.80124C83.3571 4.62623 83.285 4.46152 83.2129 4.3071H80.418V2.06801H85.8844C85.8329 1.91359 85.7815 1.76947 85.73 1.63564C85.6888 1.49151 85.6579 1.38342 85.6373 1.31136H88.5713C88.6125 1.4246 88.6485 1.54813 88.6794 1.68196C88.7206 1.8055 88.7618 1.93418 88.8029 2.06801H94.2385V4.3071H91.4435ZM88.7257 4.3071H85.9153C85.9976 4.4924 86.0749 4.67255 86.1469 4.84756C86.219 5.02257 86.2807 5.1667 86.3322 5.27994H88.2779L88.7257 4.3071ZM83.4137 8.95513C83.7328 8.69776 84.0417 8.44039 84.3402 8.18303C84.649 7.92566 84.9219 7.68888 85.1586 7.4727H83.4137V8.95513ZM87.0117 8.47642C86.8778 8.61025 86.7183 8.75953 86.533 8.92424C86.358 9.08896 86.1675 9.26396 85.9616 9.44927H88.7412C88.525 9.26396 88.3191 9.0941 88.1235 8.93968C87.9279 8.77497 87.7529 8.6257 87.5985 8.49187L88.6485 7.4727H85.9462L87.0117 8.47642ZM91.2273 7.4727H89.4361C89.7037 7.67859 89.992 7.91022 90.3008 8.16759C90.6199 8.42495 90.9288 8.67717 91.2273 8.92424V7.4727ZM90.8258 13.248C90.9905 13.2274 91.0986 13.1811 91.1501 13.109C91.2016 13.0267 91.2273 12.8619 91.2273 12.6149V10.839L90.8258 11.3641C90.7023 11.2302 90.5633 11.0913 90.4089 10.9471V13.2943L90.8258 13.248ZM88.5095 11.4104H86.1006V12.5068H88.5095V11.4104Z" fill="#546DAD"/>
<path d="M110.059 6.21137V7.16318H113.42V8.57282H110.059V9.62101H112.951V14.3319H106.336V9.62101H108.553V6.21137H105.902V8.44029C105.902 9.21137 105.874 9.88607 105.818 10.4644C105.762 11.0347 105.673 11.5527 105.553 12.0186C105.432 12.4764 105.276 12.9102 105.083 13.3198C104.898 13.7294 104.669 14.1592 104.396 14.609L102.902 13.8861C103.183 13.4684 103.416 13.0748 103.601 12.7053C103.794 12.3359 103.947 11.9503 104.059 11.5487C104.179 11.1471 104.264 10.7094 104.312 10.2355C104.368 9.76157 104.396 9.21137 104.396 8.58487L104.408 4.77764H108.372L108.167 3.78969L109.77 3.7174L109.975 4.77764H113.746V6.21137H110.059ZM111.432 11.0788H107.794V12.8981H111.432V11.0788Z" fill="#546DAD"/>
<path d="M122.762 6.40414V6.98246H125.256V12.8861C125.256 13.2074 125.24 13.4684 125.208 13.6692C125.176 13.87 125.116 14.0266 125.027 14.1391C124.939 14.2515 124.819 14.3319 124.666 14.38C124.521 14.4363 124.337 14.4804 124.112 14.5126L123.533 14.5849L123.124 13.3559L123.497 13.3078C123.594 13.2997 123.67 13.2877 123.726 13.2716C123.782 13.2555 123.823 13.2274 123.847 13.1873C123.879 13.1391 123.899 13.0748 123.907 12.9945C123.923 12.9062 123.931 12.7857 123.931 12.6331V12.3078H122.762V14.1752H121.473V12.3078H120.316V14.5728H118.991V6.98246H121.473V6.40414H119.003V5.03065H121.473V3.77764L122.762 3.83788V5.03065H123.738C123.626 4.91017 123.521 4.79772 123.425 4.6933C123.329 4.58085 123.24 4.48045 123.16 4.3921L124.015 3.60896C124.152 3.75354 124.312 3.92623 124.497 4.12704C124.69 4.31981 124.903 4.54471 125.136 4.80173L124.907 5.03065H125.57V6.40414H122.762ZM117.678 12.2234C117.806 12.1351 117.927 12.0467 118.039 11.9584C118.16 11.87 118.288 11.7656 118.425 11.6451L118.883 12.9704C118.69 13.107 118.481 13.2515 118.256 13.4041C118.031 13.5648 117.814 13.7174 117.606 13.862C117.405 14.0146 117.22 14.1511 117.051 14.2716C116.891 14.4001 116.774 14.4925 116.702 14.5487L115.979 13.4041C116.132 13.2997 116.224 13.1953 116.256 13.0909C116.288 12.9784 116.304 12.8339 116.304 12.6572V10.7656H115.389V9.38005H116.304V8.48848H115.859V8.0427C115.827 8.09089 115.794 8.13908 115.762 8.18728C115.73 8.23547 115.698 8.27965 115.666 8.31981L114.714 7.3439C114.891 7.119 115.072 6.85796 115.256 6.56077C115.449 6.26358 115.63 5.95434 115.798 5.63306C115.967 5.31177 116.12 4.98246 116.256 4.64511C116.393 4.30776 116.501 3.98246 116.582 3.6692L117.895 3.97041C117.847 4.13105 117.79 4.29571 117.726 4.46439C117.662 4.63306 117.59 4.80977 117.509 4.9945H118.714V6.3921H116.847C116.782 6.52061 116.714 6.64511 116.642 6.76559C116.57 6.88607 116.501 7.00655 116.437 7.12704H118.509V8.48848H117.678V9.38005H118.606V10.7656H117.678V12.2234ZM120.316 8.3439V9.0186H121.473V8.3439H120.316ZM122.762 8.3439V9.0186H123.931V8.3439H122.762ZM121.473 11.0306V10.3198H120.316V11.0306H121.473ZM123.931 11.0306V10.3198H122.762V11.0306H123.931Z" fill="#546DAD"/>
<path fill-rule="evenodd" clip-rule="evenodd" d="M127.234 2.60896H101.234C100.682 2.60896 100.234 3.05668 100.234 3.60896V14.609C100.234 15.1612 100.682 15.609 101.234 15.609H127.234C127.787 15.609 128.234 15.1612 128.234 14.609V3.60896C128.234 3.05668 127.787 2.60896 127.234 2.60896ZM101.234 1.60896C100.13 1.60896 99.2344 2.50439 99.2344 3.60896V14.609C99.2344 15.7135 100.13 16.609 101.234 16.609H127.234C128.339 16.609 129.234 15.7135 129.234 14.609V3.60896C129.234 2.50439 128.339 1.60896 127.234 1.60896H101.234Z" fill="#546DAD"/>
</svg>
