<svg width="48" height="48" viewBox="0 0 48 48" fill="none" xmlns="http://www.w3.org/2000/svg">
<path fill-rule="evenodd" clip-rule="evenodd" d="M23.0576 2.26072C23.6713 1.91234 24.4232 1.91315 25.0361 2.26284L42.9911 12.5067C43.6149 12.8626 44 13.5257 44 14.2439V33.7561C44 34.4758 43.6133 35.1401 42.9874 35.4954L24.9424 45.7393C24.3287 46.0877 23.5768 46.0869 22.9639 45.7372L5.0089 35.4933C4.38509 35.1374 4 34.4743 4 33.7561V14.2439C4 13.5242 4.38672 12.8599 5.01263 12.5046L23.0576 2.26072ZM8 15.4083V32.5945L23.9575 41.6988L40 32.5917V15.4055L24.0425 6.3012L8 15.4083ZM24 20.5799C21.929 20.5799 20.375 22.182 20.375 24C20.375 25.818 21.929 27.4201 24 27.4201C26.071 27.4201 27.625 25.818 27.625 24C27.625 22.182 26.071 20.5799 24 20.5799ZM16.375 24C16.375 19.8342 19.861 16.5799 24 16.5799C28.139 16.5799 31.625 19.8342 31.625 24C31.625 28.1658 28.139 31.4201 24 31.4201C19.861 31.4201 16.375 28.1658 16.375 24Z" fill="#333333"/>
</svg>
