<svg width="48" height="48" viewBox="0 0 48 48" fill="none" xmlns="http://www.w3.org/2000/svg">
<path fill-rule="evenodd" clip-rule="evenodd" d="M10 2C7.79086 2 6 3.79086 6 6V42C6 44.2091 7.79086 46 10 46H38C40.2091 46 42 44.2091 42 42V6C42 3.79086 40.2091 2 38 2H25H16H10ZM14 6H10V42H38V6H27V20C27 20.7876 26.5378 21.5018 25.8193 21.8245C25.1008 22.1471 24.2599 22.0181 23.6713 21.4948L20.5 18.6759L17.3287 21.4948C16.7401 22.0181 15.8992 22.1471 15.1807 21.8245C14.4622 21.5018 14 20.7876 14 20V6ZM23 6H18V15.5463L19.1713 14.5052C19.929 13.8316 21.071 13.8316 21.8287 14.5052L23 15.5463V6ZM14 28C14 26.8954 14.8954 26 16 26H26C27.1046 26 28 26.8954 28 28C28 29.1046 27.1046 30 26 30H16C14.8954 30 14 29.1046 14 28ZM16 32C14.8954 32 14 32.8954 14 34C14 35.1046 14.8954 36 16 36H32C33.1046 36 34 35.1046 34 34C34 32.8954 33.1046 32 32 32H16Z" fill="#333333"/>
</svg>
