<svg width="48" height="48" viewBox="0 0 48 48" fill="none" xmlns="http://www.w3.org/2000/svg">
<path fill-rule="evenodd" clip-rule="evenodd" d="M6 3C4.89543 3 4 3.89543 4 5V10C2.89543 10 2 10.8954 2 12V22.22C2 22.7208 2.18791 23.2034 2.52658 23.5724C2.99069 24.0781 3.48254 24.5469 4.0002 24.9715L4 25V43C4 44.1046 4.89543 45 6 45H19H29H42C43.1046 45 44 44.1046 44 43V25L44 24.9869C44.5251 24.5582 45.0237 24.0842 45.4934 23.5724C45.8321 23.2034 46.02 22.7208 46.02 22.22V12C46.02 10.8954 45.1246 10 44.02 10H44V5C44 3.89543 43.1046 3 42 3H6ZM31 41H40V27.1283C39.1526 27.3701 38.2675 27.5 37.35 27.5C34.8415 27.5 32.5859 26.5349 30.68 24.9714C28.7741 26.5349 26.5185 27.5 24.01 27.5C21.5015 27.5 19.2459 26.5349 17.34 24.9714C15.4341 26.5349 13.1785 27.5 10.67 27.5C9.74391 27.5 8.85228 27.3685 8 27.1238V41H17V35C17 33.8954 17.8954 33 19 33H29C30.1046 33 31 33.8954 31 35V41ZM21 41H27V37H21V41ZM6 21.4046V14H42H42.02V21.4043C40.5382 22.8134 38.9411 23.5 37.35 23.5C35.5597 23.5 33.7806 22.6404 32.1534 20.8676C31.7746 20.4549 31.2402 20.22 30.68 20.22C30.1198 20.22 29.5854 20.4549 29.2066 20.8676C27.5794 22.6404 25.8002 23.5 24.01 23.5C22.2198 23.5 20.4406 22.6404 18.8134 20.8676C18.4346 20.4549 17.9002 20.22 17.34 20.22C16.7798 20.22 16.2454 20.4549 15.8666 20.8676C14.2394 22.6404 12.4602 23.5 10.67 23.5C9.07102 23.5 7.48092 22.8143 6 21.4046ZM8 10H40V7H8V10Z" fill="#333333"/>
</svg>
