<svg width="48" height="48" viewBox="0 0 48 48" fill="none" xmlns="http://www.w3.org/2000/svg">
<path fill-rule="evenodd" clip-rule="evenodd" d="M33.5153 3.00033C32.963 2.04375 31.7398 1.716 30.7833 2.26828L17.3915 10H6C3.79088 10 2 11.7908 2 14V42C2 44.2092 3.79088 46 6 46H42C44.2092 46 46 44.2092 46 42V40.5V33V23V16.5V14C46 11.7908 44.2092 10 42 10H37.5566L33.5153 3.00033ZM42 16.5V14H6V42H42V40.5V35H35.25C31.339 35 28 31.9568 28 28C28 24.0432 31.339 21 35.25 21H42V16.5ZM42 25H35.25C33.362 25 32 26.434 32 28C32 29.566 33.362 31 35.25 31H42V25ZM32.9294 9.98547L25.4308 9.97732L31.0512 6.73238L32.9294 9.98547Z" fill="#333333"/>
</svg>
