<svg width="48" height="48" viewBox="0 0 48 48" fill="none" xmlns="http://www.w3.org/2000/svg">
<path fill-rule="evenodd" clip-rule="evenodd" d="M10.0635 3.8045C10.4409 3.29824 11.0353 3 11.6668 3H36.3334C36.9649 3 37.5593 3.29824 37.9368 3.8045L43.6035 11.4045C43.8778 11.7724 44.0066 12.2038 44 12.6298V41.0016C44 43.2106 42.2092 45.0016 40 45.0016H8C5.79081 45.0016 4 43.2106 4 41.0016V12.6016V12.5999C3.9997 12.1837 4.12883 11.7638 4.39676 11.4045L10.0635 3.8045ZM35.3299 7L38.0153 10.6016H9.98495L12.6703 7H35.3299ZM8 14.6016V41.0016H40V14.6016H8ZM18.4453 19.1992C18.4453 18.0946 17.5499 17.1992 16.4453 17.1992C15.3407 17.1992 14.4453 18.0946 14.4453 19.1992C14.4453 24.4901 18.7125 28.7991 24.0009 28.7991C29.2893 28.7991 33.5564 24.49 33.5564 19.1992C33.5564 18.0946 32.661 17.1992 31.5564 17.1992C30.4518 17.1992 29.5564 18.0946 29.5564 19.1992C29.5564 22.303 27.0581 24.7991 24.0009 24.7991C20.9437 24.7991 18.4453 22.303 18.4453 19.1992Z" fill="#333333"/>
</svg>
