<svg width="40" height="40" viewBox="0 0 40 40" fill="none" xmlns="http://www.w3.org/2000/svg">
<path fill-rule="evenodd" clip-rule="evenodd" d="M4.84766 13.6661H5.47628C5.53536 13.6687 5.59439 13.6687 5.6532 13.6661H10.9083C12.0129 13.6661 12.9083 12.7706 12.9083 11.6661C12.9083 10.5615 12.0129 9.66606 10.9083 9.66606H9.59709C12.2553 6.99002 15.9365 5.33594 20.0026 5.33594C28.1028 5.33594 34.6693 11.9024 34.6693 20.0026C34.6693 28.1028 28.1028 34.6693 20.0026 34.6693C11.9024 34.6693 5.33594 28.1028 5.33594 20.0026C5.33594 18.898 4.44051 18.0026 3.33594 18.0026C2.23137 18.0026 1.33594 18.898 1.33594 20.0026C1.33594 30.3119 9.69328 38.6693 20.0026 38.6693C30.3119 38.6693 38.6693 30.3119 38.6693 20.0026C38.6693 9.69328 30.3119 1.33594 20.0026 1.33594C14.869 1.33594 10.2207 3.40885 6.84766 6.75943V5.60547C6.84766 4.5009 5.95223 3.60547 4.84766 3.60547C3.74309 3.60547 2.84766 4.5009 2.84766 5.60547V11.6661C2.84766 12.7706 3.74309 13.6661 4.84766 13.6661ZM22.001 10.0002C22.0011 8.89563 21.1058 8.00011 20.0012 8C18.8966 7.99989 18.0011 8.89523 18.001 9.9998L18 20.0071C17.9999 20.5376 18.2107 21.0464 18.5858 21.4215L25.652 28.4877C26.433 29.2688 27.6993 29.2688 28.4804 28.4877C29.2614 27.7067 29.2614 26.4403 28.4804 25.6593L22.0001 19.179L22.001 10.0002Z" fill="#333333"/>
</svg>
